<svg xmlns="http://www.w3.org/2000/svg" width="1120" height="660" viewBox="0 0 1120 660" role="img" aria-labelledby="title desc">
<title id="title">三个分数，各自回答什么</title><desc id="desc">相关、忠实和正确分别检查什么？ 课程用原始 RAGAS 概念区分问题，不绑定当前库 API 或宣称自动评分等于真值。</desc>
<defs><marker id="arrow" viewBox="0 0 10 10" refX="8" refY="5" markerWidth="5" markerHeight="5" orient="auto"><path d="M 0 0 L 10 5 L 0 10 Z" fill="#183d36"/></marker></defs>
<rect width="1120" height="660" rx="12" fill="#f7f1e5"/>
<g font-family="PingFang SC, Microsoft YaHei, sans-serif">
<text x="44" y="47" fill="#a06a21" font-size="16" font-weight="700"><tspan x="44" y="47">AGENT LEARNER / EVALUATION LAB</tspan></text>
<text x="44" y="93" fill="#183d36" font-size="32" font-weight="700"><tspan x="44" y="93">三个分数，各自回答什么</tspan></text>
<rect x="44" y="157" width="1032" height="57" rx="8" fill="#183d36"/><text x="60" y="194" fill="#f7f1e5" font-size="22" font-weight="700"><tspan x="60" y="194">评估维度</tspan></text><text x="346" y="194" fill="#f7f1e5" font-size="22" font-weight="700"><tspan x="346" y="194">检查对象</tspan></text><text x="696" y="194" fill="#f7f1e5" font-size="22" font-weight="700"><tspan x="696" y="194">仍可能失败的地方</tspan></text><rect x="44" y="222" width="1032" height="75" rx="6" fill="#e4ebe3"/><text x="60" y="251" fill="#183d36" font-size="21" font-weight="700"><tspan x="60" y="251">上下文相关性</tspan></text><text x="346" y="251" fill="#183d36" font-size="21" font-weight="400"><tspan x="346" y="251">检索材料是否切题</tspan></text><text x="696" y="251" fill="#183d36" font-size="21" font-weight="400"><tspan x="696" y="251">材料本身可能过时</tspan></text><rect x="44" y="303" width="1032" height="75" rx="6" fill="#ece4d6"/><text x="60" y="332" fill="#183d36" font-size="21" font-weight="700"><tspan x="60" y="332">回答忠实度</tspan></text><text x="346" y="332" fill="#183d36" font-size="21" font-weight="400"><tspan x="346" y="332">陈述是否被材料支持</tspan></text><text x="696" y="332" fill="#183d36" font-size="21" font-weight="400"><tspan x="696" y="332">忠实复述错误材料</tspan></text><rect x="44" y="384" width="1032" height="75" rx="6" fill="#e4ebe3"/><text x="60" y="413" fill="#183d36" font-size="21" font-weight="700"><tspan x="60" y="413">回答相关性</tspan></text><text x="346" y="413" fill="#183d36" font-size="21" font-weight="400"><tspan x="346" y="413">回答是否回应问题</tspan></text><text x="696" y="413" fill="#183d36" font-size="21" font-weight="400"><tspan x="696" y="413">回应了却事实错误</tspan></text><rect x="44" y="465" width="1032" height="75" rx="6" fill="#ece4d6"/><text x="60" y="494" fill="#183d36" font-size="21" font-weight="700"><tspan x="60" y="494">任务验收</tspan></text><text x="346" y="494" fill="#183d36" font-size="21" font-weight="400"><tspan x="346" y="494">参考事实、约束和结果</tspan></text><text x="696" y="494" fill="#183d36" font-size="21" font-weight="400"><tspan x="696" y="494">仍需核查评分器和环境</tspan></text>
<line x1="44" y1="574" x2="1076" y2="574" stroke="#a5afa2"/>
<text x="44" y="607" fill="#183d36" font-size="21" font-weight="400"><tspan x="44" y="607">课程用原始 RAGAS 概念区分问题，不绑定当前库 API 或宣称自动评分等于真值。</tspan></text>
</g></svg>
